<svg xmlns="http://www.w3.org/2000/svg" viewBox="0 0 1200 1600" font-family="'Inter', 'Helvetica Neue', Arial, sans-serif">
  <defs>
    <linearGradient id="accentGrad" x1="0" y1="0" x2="1" y2="0">
      <stop offset="0%" stop-color="#D73D80"/>
      <stop offset="100%" stop-color="#FD9355"/>
    </linearGradient>
  </defs>

  <!-- Background: Midnight -->
  <rect width="1200" height="1600" fill="#13061F"/>

  <!-- Subtle geometric blocks (brand pattern) -->
  <rect x="0" y="0" width="300" height="200" fill="#1D132E" opacity="0.5"/>
  <rect x="300" y="0" width="300" height="200" fill="#1D132E" opacity="0.3"/>
  <rect x="900" y="0" width="300" height="200" fill="#1D132E" opacity="0.4"/>

  <!-- Top accent line -->
  <rect x="0" y="0" width="1200" height="3" fill="url(#accentGrad)"/>

  <!-- Title -->
  <text x="80" y="120" fill="#D73D80" font-size="52" font-weight="700" letter-spacing="-1">Tokenomics</text>
  <text x="80" y="155" fill="#D8CDE2" font-size="16" letter-spacing="4" opacity="0.6">ALVARA PROTOCOL</text>

  <!-- Key Figures Row -->
  <g transform="translate(0, 200)">
    <rect x="80" y="0" width="235" height="85" rx="8" fill="#1D132E"/>
    <text x="100" y="30" fill="#D8CDE2" font-size="11" letter-spacing="1.5" opacity="0.7">TOTAL SUPPLY</text>
    <text x="100" y="62" fill="#FFFFFF" font-size="24" font-weight="700">200,000,000</text>

    <rect x="345" y="0" width="235" height="85" rx="8" fill="#1D132E"/>
    <text x="365" y="30" fill="#D8CDE2" font-size="11" letter-spacing="1.5" opacity="0.7">LISTING PRICE</text>
    <text x="365" y="62" fill="#FFFFFF" font-size="24" font-weight="700">$0.30</text>

    <rect x="610" y="0" width="235" height="85" rx="8" fill="#1D132E"/>
    <text x="630" y="30" fill="#D8CDE2" font-size="11" letter-spacing="1.5" opacity="0.7">FULLY DILUTED MC</text>
    <text x="630" y="62" fill="#FFFFFF" font-size="24" font-weight="700">$60,000,000</text>

    <rect x="875" y="0" width="235" height="85" rx="8" fill="#1D132E"/>
    <text x="895" y="30" fill="#D8CDE2" font-size="11" letter-spacing="1.5" opacity="0.7">MARKET CAP AT TGE</text>
    <text x="895" y="62" fill="#FFFFFF" font-size="24" font-weight="700">$750,000</text>
  </g>

  <!-- Section: Token Allocation -->
  <text x="80" y="360" fill="#D73D80" font-size="28" font-weight="700">Token Allocation</text>

  <!-- Doughnut chart: center (370, 540), outer radius 155, inner radius 70 -->
  <!-- All colours from the Alvara brand palette -->
  <g transform="translate(370, 540)">
    <!-- 1. BSKT Incentives 44% — Salmon #D73D80 -->
    <path d="M 0,-70 L 0,-155 A 155,155 0 0,1 57.06,144.12 L 25.77,65.08 A 70,70 0 0,0 0,-70 Z" fill="#D73D80"/>
    <!-- 2. Foundation 10% — Indigo #3A234F -->
    <path d="M 25.77,65.08 L 57.06,144.12 A 155,155 0 0,1 -38.55,150.13 L -17.41,67.8 A 70,70 0 0,0 25.77,65.08 Z" fill="#3A234F"/>
    <!-- 3. Team & Contributors 15% — Tangerine #FD9355 -->
    <path d="M -17.41,67.8 L -38.55,150.13 A 155,155 0 0,1 -144.12,57.06 L -65.08,25.77 A 70,70 0 0,0 -17.41,67.8 Z" fill="#FD9355"/>
    <!-- 4. Seed Round 4% — #E55593 -->
    <path d="M -65.08,25.77 L -144.12,57.06 A 155,155 0 0,1 -153.78,19.43 L -69.45,8.77 A 70,70 0 0,0 -65.08,25.77 Z" fill="#E55593"/>
    <!-- 5. Private Round 4% — #A0357B -->
    <path d="M -69.45,8.77 L -153.78,19.43 A 155,155 0 0,1 -153.78,-19.43 L -69.45,-8.77 A 70,70 0 0,0 -69.45,8.77 Z" fill="#A0357B"/>
    <!-- 6. Strategic Partners 1.5% — Flamingo #FC9FB7 -->
    <path d="M -69.45,-8.77 L -153.78,-19.43 A 155,155 0 0,1 -151.27,-33.81 L -68.31,-15.27 A 70,70 0 0,0 -69.45,-8.77 Z" fill="#FC9FB7"/>
    <!-- 7. KOL Round 0.5% — #B9A7C0 -->
    <path d="M -68.31,-15.27 L -151.27,-33.81 A 155,155 0 0,1 -150.13,-38.55 L -67.8,-17.41 A 70,70 0 0,0 -68.31,-15.27 Z" fill="#B9A7C0"/>
    <!-- 8. Public Round 4% — #6A2E6A -->
    <path d="M -67.8,-17.41 L -150.13,-38.55 A 155,155 0 0,1 -135.83,-74.67 L -61.34,-33.72 A 70,70 0 0,0 -67.8,-17.41 Z" fill="#6A2E6A"/>
    <!-- 9. Airdrop 2% — #FFA054 -->
    <path d="M -61.34,-33.72 L -135.83,-74.67 A 155,155 0 0,1 -125.4,-91.11 L -56.63,-41.14 A 70,70 0 0,0 -61.34,-33.72 Z" fill="#FFA054"/>
    <!-- 10. Grants & Builder 5% — #F368A4 -->
    <path d="M -56.63,-41.14 L -125.4,-91.11 A 155,155 0 0,1 -91.11,-125.4 L -41.14,-56.63 A 70,70 0 0,0 -56.63,-41.14 Z" fill="#F368A4"/>
    <!-- 11. Affiliate & Marketing 5% — #FFCB98 -->
    <path d="M -41.14,-56.63 L -91.11,-125.4 A 155,155 0 0,1 -47.9,-147.41 L -21.63,-66.57 A 70,70 0 0,0 -41.14,-56.63 Z" fill="#FFCB98"/>
    <!-- 12. DEX/CEX Liquidity 5% — #786185 -->
    <path d="M -21.63,-66.57 L -47.9,-147.41 A 155,155 0 0,1 0,-155 L 0,-70 A 70,70 0 0,0 -21.63,-66.57 Z" fill="#786185"/>

    <!-- Center text -->
    <text x="0" y="-8" text-anchor="middle" fill="#FFFFFF" font-size="20" font-weight="700">200M</text>
    <text x="0" y="16" text-anchor="middle" fill="#D8CDE2" font-size="11" opacity="0.7">ALVA</text>
  </g>

  <!-- Legend (right side of chart) -->
  <g transform="translate(610, 395)">
    <!-- ECOSYSTEM -->
    <text x="0" y="12" fill="#D8CDE2" font-size="10" letter-spacing="2" opacity="0.5">ECOSYSTEM</text>

    <rect x="0" y="22" width="14" height="14" rx="3" fill="#D73D80"/>
    <text x="24" y="34" fill="#FFFFFF" font-size="13">BSKT Incentives</text>
    <text x="380" y="34" fill="#D73D80" font-size="13" font-weight="600" text-anchor="end">44%</text>
    <text x="480" y="34" fill="#D8CDE2" font-size="12" text-anchor="end" opacity="0.7">88,000,000</text>

    <rect x="0" y="48" width="14" height="14" rx="3" fill="#F368A4"/>
    <text x="24" y="60" fill="#FFFFFF" font-size="13">Grants &amp; Builder Rewards</text>
    <text x="380" y="60" fill="#F368A4" font-size="13" font-weight="600" text-anchor="end">5%</text>
    <text x="480" y="60" fill="#D8CDE2" font-size="12" text-anchor="end" opacity="0.7">10,000,000</text>

    <rect x="0" y="74" width="14" height="14" rx="3" fill="#786185"/>
    <text x="24" y="86" fill="#FFFFFF" font-size="13">DEX/CEX Liquidity</text>
    <text x="380" y="86" fill="#786185" font-size="13" font-weight="600" text-anchor="end">5%</text>
    <text x="480" y="86" fill="#D8CDE2" font-size="12" text-anchor="end" opacity="0.7">10,000,000</text>

    <!-- TEAM & OPS -->
    <text x="0" y="118" fill="#D8CDE2" font-size="10" letter-spacing="2" opacity="0.5">TEAM &amp; OPS</text>

    <rect x="0" y="128" width="14" height="14" rx="3" fill="#FD9355"/>
    <text x="24" y="140" fill="#FFFFFF" font-size="13">Team &amp; Contributors</text>
    <text x="380" y="140" fill="#FD9355" font-size="13" font-weight="600" text-anchor="end">15%</text>
    <text x="480" y="140" fill="#D8CDE2" font-size="12" text-anchor="end" opacity="0.7">30,000,000</text>

    <rect x="0" y="154" width="14" height="14" rx="3" fill="#3A234F" stroke="#D8CDE2" stroke-width="0.5"/>
    <text x="24" y="166" fill="#FFFFFF" font-size="13">Foundation</text>
    <text x="380" y="166" fill="#D8CDE2" font-size="13" font-weight="600" text-anchor="end">10%</text>
    <text x="480" y="166" fill="#D8CDE2" font-size="12" text-anchor="end" opacity="0.7">20,000,000</text>

    <rect x="0" y="180" width="14" height="14" rx="3" fill="#FFCB98"/>
    <text x="24" y="192" fill="#FFFFFF" font-size="13">Affiliate &amp; Marketing</text>
    <text x="380" y="192" fill="#FFCB98" font-size="13" font-weight="600" text-anchor="end">5%</text>
    <text x="480" y="192" fill="#D8CDE2" font-size="12" text-anchor="end" opacity="0.7">10,000,000</text>

    <!-- INVESTORS -->
    <text x="0" y="224" fill="#D8CDE2" font-size="10" letter-spacing="2" opacity="0.5">INVESTORS</text>

    <rect x="0" y="234" width="14" height="14" rx="3" fill="#E55593"/>
    <text x="24" y="246" fill="#FFFFFF" font-size="13">Seed Round</text>
    <text x="380" y="246" fill="#E55593" font-size="13" font-weight="600" text-anchor="end">4%</text>
    <text x="480" y="246" fill="#D8CDE2" font-size="12" text-anchor="end" opacity="0.7">8,000,000</text>

    <rect x="0" y="260" width="14" height="14" rx="3" fill="#A0357B"/>
    <text x="24" y="272" fill="#FFFFFF" font-size="13">Private Round</text>
    <text x="380" y="272" fill="#A0357B" font-size="13" font-weight="600" text-anchor="end">4%</text>
    <text x="480" y="272" fill="#D8CDE2" font-size="12" text-anchor="end" opacity="0.7">8,000,000</text>

    <rect x="0" y="286" width="14" height="14" rx="3" fill="#FC9FB7"/>
    <text x="24" y="298" fill="#FFFFFF" font-size="13">Strategic Partners</text>
    <text x="380" y="298" fill="#FC9FB7" font-size="13" font-weight="600" text-anchor="end">2%</text>
    <text x="480" y="298" fill="#D8CDE2" font-size="12" text-anchor="end" opacity="0.7">4,000,000</text>

    <!-- COMMUNITY -->
    <text x="0" y="330" fill="#D8CDE2" font-size="10" letter-spacing="2" opacity="0.5">COMMUNITY</text>

    <rect x="0" y="340" width="14" height="14" rx="3" fill="#6A2E6A"/>
    <text x="24" y="352" fill="#FFFFFF" font-size="13">Public Round</text>
    <text x="380" y="352" fill="#D8CDE2" font-size="13" font-weight="600" text-anchor="end">4%</text>
    <text x="480" y="352" fill="#D8CDE2" font-size="12" text-anchor="end" opacity="0.7">8,000,000</text>

    <rect x="0" y="366" width="14" height="14" rx="3" fill="#FFA054"/>
    <text x="24" y="378" fill="#FFFFFF" font-size="13">Airdrop</text>
    <text x="380" y="378" fill="#FFA054" font-size="13" font-weight="600" text-anchor="end">2%</text>
    <text x="480" y="378" fill="#D8CDE2" font-size="12" text-anchor="end" opacity="0.7">4,000,000</text>
  </g>

  <!-- Section: Vesting Schedule -->
  <text x="80" y="810" fill="#D73D80" font-size="28" font-weight="700">Vesting Schedule</text>

  <!-- Table -->
  <g transform="translate(80, 835)">
    <!-- Header -->
    <rect x="0" y="0" width="1040" height="36" rx="6" fill="#D73D80"/>
    <text x="20" y="24" fill="#FFFFFF" font-size="12" font-weight="600">Distribution</text>
    <text x="380" y="24" fill="#FFFFFF" font-size="12" font-weight="600">Tokens</text>
    <text x="530" y="24" fill="#FFFFFF" font-size="12" font-weight="600">Price</text>
    <text x="640" y="24" fill="#FFFFFF" font-size="12" font-weight="600">Raise</text>
    <text x="750" y="24" fill="#FFFFFF" font-size="12" font-weight="600">Cliff</text>
    <text x="840" y="24" fill="#FFFFFF" font-size="12" font-weight="600">Vesting</text>
    <text x="960" y="24" fill="#FFFFFF" font-size="12" font-weight="600">TGE %</text>

    <!-- Rows (alternating #1D132E and transparent) -->
    <rect x="0" y="40" width="1040" height="32" rx="4" fill="#1D132E"/>
    <text x="20" y="62" fill="#FFFFFF" font-size="12">Stage 1 — Seed Round (4%)</text>
    <text x="380" y="62" fill="#D8CDE2" font-size="12">8,000,000</text>
    <text x="530" y="62" fill="#D8CDE2" font-size="12">$0.150</text>
    <text x="640" y="62" fill="#FD9355" font-size="12">$1.2M</text>
    <text x="750" y="62" fill="#D8CDE2" font-size="12">6 mo</text>
    <text x="840" y="62" fill="#D8CDE2" font-size="12">24 mo</text>
    <text x="960" y="62" fill="#D8CDE2" font-size="12">0%</text>

    <rect x="0" y="76" width="1040" height="32" rx="4" fill="#1D132E" opacity="0.5"/>
    <text x="20" y="98" fill="#FFFFFF" font-size="12">Stage 2 — Private Round (4%)</text>
    <text x="380" y="98" fill="#D8CDE2" font-size="12">8,000,000</text>
    <text x="530" y="98" fill="#D8CDE2" font-size="12">$0.200</text>
    <text x="640" y="98" fill="#FD9355" font-size="12">$1.6M</text>
    <text x="750" y="98" fill="#D8CDE2" font-size="12">3 mo</text>
    <text x="840" y="98" fill="#D8CDE2" font-size="12">18 mo</text>
    <text x="960" y="98" fill="#D8CDE2" font-size="12">0%</text>

    <rect x="0" y="112" width="1040" height="32" rx="4" fill="#1D132E"/>
    <text x="20" y="134" fill="#FFFFFF" font-size="12">Stage 3 — Strategic Partners (2%)</text>
    <text x="380" y="134" fill="#D8CDE2" font-size="12">4,000,000</text>
    <text x="530" y="134" fill="#D8CDE2" font-size="12">$0.244</text>
    <text x="640" y="134" fill="#FD9355" font-size="12">$975K</text>
    <text x="750" y="134" fill="#D8CDE2" font-size="12">3 mo</text>
    <text x="840" y="134" fill="#D8CDE2" font-size="12">14 mo</text>
    <text x="960" y="134" fill="#D8CDE2" font-size="12">0%</text>

    <rect x="0" y="148" width="1040" height="32" rx="4" fill="#1D132E" opacity="0.5"/>
    <text x="20" y="170" fill="#FFFFFF" font-size="12">Stage 4 — Public Round (4%)</text>
    <text x="380" y="170" fill="#D8CDE2" font-size="12">8,000,000</text>
    <text x="530" y="170" fill="#D8CDE2" font-size="12">$0.300</text>
    <text x="640" y="170" fill="#FD9355" font-size="12">$2.4M</text>
    <text x="750" y="170" fill="#D8CDE2" font-size="12">0</text>
    <text x="840" y="170" fill="#D8CDE2" font-size="12">4 mo</text>
    <text x="960" y="170" fill="#D73D80" font-size="12" font-weight="600">25%</text>

    <rect x="0" y="184" width="1040" height="32" rx="4" fill="#1D132E"/>
    <text x="20" y="206" fill="#FFFFFF" font-size="12">Stage 5 — Airdrop (2%)</text>
    <text x="380" y="206" fill="#D8CDE2" font-size="12">4,000,000</text>
    <text x="530" y="206" fill="#D8CDE2" font-size="12">$0.300</text>
    <text x="640" y="206" fill="#D8CDE2" font-size="12" opacity="0.5">—</text>
    <text x="750" y="206" fill="#D8CDE2" font-size="12">1 mo</text>
    <text x="840" y="206" fill="#D8CDE2" font-size="12">1 mo</text>
    <text x="960" y="206" fill="#D8CDE2" font-size="12">0%</text>

    <rect x="0" y="220" width="1040" height="32" rx="4" fill="#1D132E" opacity="0.5"/>
    <text x="20" y="242" fill="#FFFFFF" font-size="12">Team &amp; Contributors (15%)</text>
    <text x="380" y="242" fill="#D8CDE2" font-size="12">30,000,000</text>
    <text x="530" y="242" fill="#D8CDE2" font-size="12" opacity="0.5">—</text>
    <text x="640" y="242" fill="#D8CDE2" font-size="12" opacity="0.5">—</text>
    <text x="750" y="242" fill="#D8CDE2" font-size="12">12 mo</text>
    <text x="840" y="242" fill="#D8CDE2" font-size="12">33 mo</text>
    <text x="960" y="242" fill="#D8CDE2" font-size="12">0%</text>

    <rect x="0" y="256" width="1040" height="32" rx="4" fill="#1D132E"/>
    <text x="20" y="278" fill="#FFFFFF" font-size="12">Grants &amp; Builder Rewards (5%)</text>
    <text x="380" y="278" fill="#D8CDE2" font-size="12">10,000,000</text>
    <text x="530" y="278" fill="#D8CDE2" font-size="12" opacity="0.5">—</text>
    <text x="640" y="278" fill="#D8CDE2" font-size="12" opacity="0.5">—</text>
    <text x="750" y="278" fill="#D8CDE2" font-size="12">DAO</text>
    <text x="840" y="278" fill="#D8CDE2" font-size="12">DAO</text>
    <text x="960" y="278" fill="#D8CDE2" font-size="12">0%</text>

    <rect x="0" y="292" width="1040" height="32" rx="4" fill="#1D132E" opacity="0.5"/>
    <text x="20" y="314" fill="#FFFFFF" font-size="12">Foundation (10%)</text>
    <text x="380" y="314" fill="#D8CDE2" font-size="12">20,000,000</text>
    <text x="530" y="314" fill="#D8CDE2" font-size="12" opacity="0.5">—</text>
    <text x="640" y="314" fill="#D8CDE2" font-size="12" opacity="0.5">—</text>
    <text x="750" y="314" fill="#D8CDE2" font-size="12">6 mo</text>
    <text x="840" y="314" fill="#D8CDE2" font-size="12">12 mo</text>
    <text x="960" y="314" fill="#D8CDE2" font-size="12">0%</text>

    <rect x="0" y="328" width="1040" height="32" rx="4" fill="#1D132E"/>
    <text x="20" y="350" fill="#FFFFFF" font-size="12">Affiliate &amp; Marketing (5%)</text>
    <text x="380" y="350" fill="#D8CDE2" font-size="12">10,000,000</text>
    <text x="530" y="350" fill="#D8CDE2" font-size="12" opacity="0.5">—</text>
    <text x="640" y="350" fill="#D8CDE2" font-size="12" opacity="0.5">—</text>
    <text x="750" y="350" fill="#D8CDE2" font-size="12">1 mo</text>
    <text x="840" y="350" fill="#D8CDE2" font-size="12">12 mo</text>
    <text x="960" y="350" fill="#D8CDE2" font-size="12">0%</text>

    <rect x="0" y="364" width="1040" height="32" rx="4" fill="#1D132E" opacity="0.5"/>
    <text x="20" y="386" fill="#FFFFFF" font-size="12">DEX/CEX Liquidity (5%)</text>
    <text x="380" y="386" fill="#D8CDE2" font-size="12">10,000,000</text>
    <text x="530" y="386" fill="#D8CDE2" font-size="12" opacity="0.5">—</text>
    <text x="640" y="386" fill="#D8CDE2" font-size="12" opacity="0.5">—</text>
    <text x="750" y="386" fill="#D8CDE2" font-size="12">0</text>
    <text x="840" y="386" fill="#D8CDE2" font-size="12">0</text>
    <text x="960" y="386" fill="#D73D80" font-size="12" font-weight="600">100%</text>

    <rect x="0" y="400" width="1040" height="32" rx="4" fill="#1D132E"/>
    <text x="20" y="422" fill="#FFFFFF" font-size="12">BSKT Incentives (44%)</text>
    <text x="380" y="422" fill="#D8CDE2" font-size="12">88,000,000</text>
    <text x="530" y="422" fill="#D8CDE2" font-size="12" opacity="0.5">—</text>
    <text x="640" y="422" fill="#D8CDE2" font-size="12" opacity="0.5">—</text>
    <text x="750" y="422" fill="#D8CDE2" font-size="12">DAO</text>
    <text x="840" y="422" fill="#D8CDE2" font-size="12">372 mo</text>
    <text x="960" y="422" fill="#D8CDE2" font-size="12">0%</text>

    <!-- Total row -->
    <rect x="0" y="440" width="1040" height="36" rx="6" fill="#3A234F"/>
    <text x="20" y="464" fill="#FFFFFF" font-size="13" font-weight="700">TOTAL</text>
    <text x="380" y="464" fill="#FFFFFF" font-size="13" font-weight="700">200,000,000</text>
    <text x="640" y="464" fill="#FD9355" font-size="13" font-weight="700">$6,175,000</text>
  </g>

  <!-- Bottom cards -->
  <g transform="translate(80, 1400)">
    <!-- TGE Circulating Supply -->
    <rect x="0" y="0" width="500" height="150" rx="8" fill="#1D132E"/>
    <text x="24" y="32" fill="#D73D80" font-size="15" font-weight="600">TGE Circulating Supply</text>
    <line x1="24" y1="46" x2="476" y2="46" stroke="#3A234F" stroke-width="1"/>
    <text x="24" y="72" fill="#D8CDE2" font-size="13">Strategic Partners</text>
    <text x="476" y="72" text-anchor="end" fill="#D8CDE2" font-size="13">500,000</text>
    <text x="24" y="94" fill="#D8CDE2" font-size="13">Public Round</text>
    <text x="476" y="94" text-anchor="end" fill="#D8CDE2" font-size="13">2,000,000</text>
    <text x="24" y="116" fill="#D8CDE2" font-size="13">DEX/CEX Liquidity</text>
    <text x="476" y="116" text-anchor="end" fill="#D8CDE2" font-size="13">10,000,000</text>
    <line x1="24" y1="126" x2="476" y2="126" stroke="#3A234F" stroke-width="1"/>
    <text x="24" y="145" fill="#FFFFFF" font-size="14" font-weight="700">Total</text>
    <text x="476" y="145" text-anchor="end" fill="#D73D80" font-size="14" font-weight="700">12,500,000 (6.25%)</text>

    <!-- Fundraise Summary -->
    <rect x="540" y="0" width="500" height="150" rx="8" fill="#1D132E"/>
    <text x="564" y="32" fill="#D73D80" font-size="15" font-weight="600">Fundraise Summary</text>
    <line x1="564" y1="46" x2="1016" y2="46" stroke="#3A234F" stroke-width="1"/>
    <text x="564" y="76" fill="#D8CDE2" font-size="13">Target Raise</text>
    <text x="1016" y="76" text-anchor="end" fill="#FD9355" font-size="14" font-weight="600">$6,175,000</text>
    <text x="564" y="104" fill="#D8CDE2" font-size="13">Unlocked at Listing</text>
    <text x="1016" y="104" text-anchor="end" fill="#D8CDE2" font-size="13">12,500,000 (6.25%)</text>
    <text x="564" y="132" fill="#D8CDE2" font-size="13">Market Cap at TGE</text>
    <text x="1016" y="132" text-anchor="end" fill="#D73D80" font-size="14" font-weight="600">$750,000</text>
  </g>

  <!-- Footer -->
  <line x1="80" y1="1575" x2="1120" y2="1575" stroke="#3A234F" stroke-width="1"/>
  <text x="600" y="1593" text-anchor="middle" fill="#D8CDE2" font-size="11" opacity="0.4">alvara.xyz</text>
</svg>